<svg xmlns="http://www.w3.org/2000/svg" viewBox="0 0 400 480" font-family="'Segoe UI', Arial, sans-serif">
  <defs>
    <marker id="ah" markerWidth="8" markerHeight="6" refX="8" refY="3" orient="auto">
      <polygon points="0 0, 8 3, 0 6" fill="#2D5A3D"/>
    </marker>
    <marker id="ah-r" markerWidth="8" markerHeight="6" refX="0" refY="3" orient="auto">
      <polygon points="8 0, 0 3, 8 6" fill="#2D5A3D"/>
    </marker>
    <marker id="ah-blue" markerWidth="8" markerHeight="6" refX="8" refY="3" orient="auto">
      <polygon points="0 0, 8 3, 0 6" fill="#2980B9"/>
    </marker>
    <pattern id="sand" patternUnits="userSpaceOnUse" width="4" height="4">
      <rect width="4" height="4" fill="#F5EFE0"/>
      <circle cx="1" cy="1" r="0.5" fill="#EBE3D0" opacity="0.5"/>
      <circle cx="3" cy="3" r="0.5" fill="#EBE3D0" opacity="0.5"/>
    </pattern>
  </defs>
  <text x="200" y="28" text-anchor="middle" font-size="14" font-weight="700" fill="#1B2A4A">Collected Trot Work on the Lunge</text>
  <text x="200" y="48" text-anchor="middle" font-size="10" fill="#6B6B6B">Lunge Circle Setup</text>
  <circle cx="200" cy="220" r="160" fill="url(#sand)" stroke="#8B7D6B" stroke-width="2"/>
  <circle cx="200" cy="220" r="152" fill="none" stroke="#A0937D" stroke-width="1" stroke-dasharray="4,4"/>
  <circle cx="200" cy="220" r="120" fill="none" stroke="#2D5A3D" stroke-width="3" stroke-dasharray="10,5" opacity="0.85"/>
  <path d="M 177.4,92.0 A 130,130 0 0,1 322.2,175.5" fill="none" stroke="#2D5A3D" stroke-width="2" marker-end="url(#ah)"/>
  <circle cx="200" cy="220" r="7" fill="#2980B9" opacity="0.8"/>
  <text x="200" y="223" text-anchor="middle" font-size="7" fill="white" font-weight="700">H</text>
  <circle cx="320" cy="220" r="6" fill="#2D5A3D" opacity="0.85"/>
  <line x1="200" y1="220" x2="314" y2="220" stroke="#6B6B6B" stroke-width="1" stroke-dasharray="4,3"/>
  <text x="260" y="210" font-size="9" fill="#6B6B6B">lunge line</text>
  <text x="200" y="400" text-anchor="middle" font-size="10" fill="#1B2A4A">H = Handler position</text>
  <line x1="60" y1="440" x2="78" y2="440" stroke="#2D5A3D" stroke-width="2.5" stroke-dasharray="6,3"/>
  <text x="82" y="444" font-size="9" fill="#6B6B6B">Circle path</text>
</svg>