<svg xmlns="http://www.w3.org/2000/svg" viewBox="0 0 400 580" font-family="'Segoe UI', Arial, sans-serif">
  <defs>
    <marker id="ah" markerWidth="8" markerHeight="6" refX="8" refY="3" orient="auto">
      <polygon points="0 0, 8 3, 0 6" fill="#2D5A3D"/>
    </marker>
    <marker id="ah-r" markerWidth="8" markerHeight="6" refX="0" refY="3" orient="auto">
      <polygon points="8 0, 0 3, 8 6" fill="#2D5A3D"/>
    </marker>
    <marker id="ah-blue" markerWidth="8" markerHeight="6" refX="8" refY="3" orient="auto">
      <polygon points="0 0, 8 3, 0 6" fill="#2980B9"/>
    </marker>
    <pattern id="sand" patternUnits="userSpaceOnUse" width="4" height="4">
      <rect width="4" height="4" fill="#F5EFE0"/>
      <circle cx="1" cy="1" r="0.5" fill="#EBE3D0" opacity="0.5"/>
      <circle cx="3" cy="3" r="0.5" fill="#EBE3D0" opacity="0.5"/>
    </pattern>
  </defs>
  <text x="200" y="28" text-anchor="middle" font-size="14" font-weight="700" fill="#1B2A4A">Small Slow Circle to Large Fast Circle at the Trot</text>
  <text x="200" y="48" text-anchor="middle" font-size="10" fill="#6B6B6B">Standard Dressage Arena (20m x 60m)</text>
  <rect x="60" y="60" width="280" height="480" rx="4" fill="url(#sand)" stroke="#8B7D6B" stroke-width="2"/>
  <rect x="68" y="68" width="264" height="464" rx="2" fill="none" stroke="#A0937D" stroke-width="1" stroke-dasharray="4,4"/>
  <line x1="200.0" y1="68" x2="200.0" y2="532" stroke="#C4B9A8" stroke-width="1" stroke-dasharray="6,6"/>
  <line x1="68" y1="300.0" x2="332" y2="300.0" stroke="#C4B9A8" stroke-width="1" stroke-dasharray="6,6"/>
  <text x="200.0" y="54" text-anchor="middle" font-size="15" font-weight="700" fill="#1B2A4A">A</text>
  <text x="200.0" y="556" text-anchor="middle" font-size="15" font-weight="700" fill="#1B2A4A">C</text>
  <text x="46" y="113.0" text-anchor="middle" font-size="14" font-weight="700" fill="#1B2A4A">F</text>
  <text x="354" y="113.0" text-anchor="middle" font-size="14" font-weight="700" fill="#1B2A4A">K</text>
  <text x="46" y="209.0" text-anchor="middle" font-size="14" font-weight="700" fill="#1B2A4A">P</text>
  <text x="354" y="209.0" text-anchor="middle" font-size="14" font-weight="700" fill="#1B2A4A">V</text>
  <text x="46" y="305.0" text-anchor="middle" font-size="14" font-weight="700" fill="#1B2A4A">B</text>
  <text x="354" y="305.0" text-anchor="middle" font-size="14" font-weight="700" fill="#1B2A4A">E</text>
  <text x="46" y="401.0" text-anchor="middle" font-size="14" font-weight="700" fill="#1B2A4A">R</text>
  <text x="354" y="401.0" text-anchor="middle" font-size="14" font-weight="700" fill="#1B2A4A">S</text>
  <text x="46" y="497.0" text-anchor="middle" font-size="14" font-weight="700" fill="#1B2A4A">M</text>
  <text x="354" y="497.0" text-anchor="middle" font-size="14" font-weight="700" fill="#1B2A4A">H</text>
  <text x="212.0" y="296.0" font-size="12" font-weight="600" fill="#999">X</text>
  <circle cx="200.0" cy="300.0" r="70.0" fill="none" stroke="#2D5A3D" stroke-width="3" stroke-dasharray="10,5" opacity="0.85"/>
  <polygon points="200.0,221.0 206.0,235.0 194.0,235.0" fill="#E67E22" stroke="#D35400" stroke-width="1.5"/>
  <polygon points="270.0,291.0 276.0,305.0 264.0,305.0" fill="#E67E22" stroke="#D35400" stroke-width="1.5"/>
  <polygon points="200.0,361.0 206.0,375.0 194.0,375.0" fill="#E67E22" stroke="#D35400" stroke-width="1.5"/>
  <polygon points="130.0,291.0 136.0,305.0 124.0,305.0" fill="#E67E22" stroke="#D35400" stroke-width="1.5"/>
  <path d="M 186.1,221.2 A 80.0,80.0 0 0,1 275.2,272.6" fill="none" stroke="#2D5A3D" stroke-width="2" marker-end="url(#ah)"/>
  <circle cx="249.0" cy="251.0" r="6" fill="#2D5A3D" opacity="0.85"/>
  <text x="200.0" y="304.0" text-anchor="middle" font-size="11" fill="#2D5A3D" font-weight="600">10m</text>
  <line x1="60" y1="560" x2="78" y2="560" stroke="#2D5A3D" stroke-width="2.5" stroke-dasharray="6,3"/>
  <text x="82" y="564" font-size="9" fill="#6B6B6B">Circle path</text>
  <polygon points="156.5,555 161.5,564 151.5,564" fill="#E67E22" stroke="#D35400" stroke-width="1"/>
  <text x="166.5" y="564" font-size="9" fill="#6B6B6B">Marker</text>
</svg>