<svg xmlns="http://www.w3.org/2000/svg" viewBox="0 0 400 500" font-family="'Segoe UI', Arial, sans-serif">
  <defs>
    <marker id="ah" markerWidth="8" markerHeight="6" refX="8" refY="3" orient="auto">
      <polygon points="0 0, 8 3, 0 6" fill="#2D5A3D"/>
    </marker>
    <marker id="ah-r" markerWidth="8" markerHeight="6" refX="0" refY="3" orient="auto">
      <polygon points="8 0, 0 3, 8 6" fill="#2D5A3D"/>
    </marker>
    <marker id="ah-blue" markerWidth="8" markerHeight="6" refX="8" refY="3" orient="auto">
      <polygon points="0 0, 8 3, 0 6" fill="#2980B9"/>
    </marker>
    <pattern id="sand" patternUnits="userSpaceOnUse" width="4" height="4">
      <rect width="4" height="4" fill="#F5EFE0"/>
      <circle cx="1" cy="1" r="0.5" fill="#EBE3D0" opacity="0.5"/>
      <circle cx="3" cy="3" r="0.5" fill="#EBE3D0" opacity="0.5"/>
    </pattern>
  </defs>
  <text x="200" y="28" text-anchor="middle" font-size="14" font-weight="700" fill="#1B2A4A">Walk-Halt-Walk on a Straight Line</text>
  <text x="200" y="48" text-anchor="middle" font-size="10" fill="#6B6B6B">Jump Course Layout</text>
  <rect x="60" y="60" width="280" height="380" rx="4" fill="url(#sand)" stroke="#8B7D6B" stroke-width="2"/>
  <rect x="68" y="68" width="264" height="364" rx="2" fill="none" stroke="#A0937D" stroke-width="1" stroke-dasharray="4,4"/>
  <line x1="200.0" y1="68" x2="200.0" y2="432" stroke="#C4B9A8" stroke-width="1" stroke-dasharray="6,6"/>
  <line x1="68" y1="250.0" x2="332" y2="250.0" stroke="#C4B9A8" stroke-width="1" stroke-dasharray="6,6"/>
  <text x="200.0" y="54" text-anchor="middle" font-size="15" font-weight="700" fill="#1B2A4A">A</text>
  <text x="200.0" y="456" text-anchor="middle" font-size="15" font-weight="700" fill="#1B2A4A">C</text>
  <text x="46" y="122.0" text-anchor="middle" font-size="14" font-weight="700" fill="#1B2A4A">F</text>
  <text x="46" y="255.0" text-anchor="middle" font-size="14" font-weight="700" fill="#1B2A4A">B</text>
  <text x="46" y="388.0" text-anchor="middle" font-size="14" font-weight="700" fill="#1B2A4A">M</text>
  <text x="354" y="122.0" text-anchor="middle" font-size="14" font-weight="700" fill="#1B2A4A">K</text>
  <text x="354" y="255.0" text-anchor="middle" font-size="14" font-weight="700" fill="#1B2A4A">E</text>
  <text x="354" y="388.0" text-anchor="middle" font-size="14" font-weight="700" fill="#1B2A4A">H</text>
  <text x="212.0" y="246.0" font-size="12" font-weight="600" fill="#999">X</text>
  <rect x="135.0" y="136" width="50" height="8" rx="2" fill="#C0392B" opacity="0.85"/>
  <rect x="132.0" y="130" width="6" height="20" rx="1" fill="#1B2A4A" opacity="0.7"/>
  <rect x="182.0" y="130" width="6" height="20" rx="1" fill="#1B2A4A" opacity="0.7"/>
  <text x="195.0" y="144" font-size="9" fill="#6B6B6B">1</text>
  <rect x="215.0" y="236" width="50" height="8" rx="2" fill="#C0392B" opacity="0.85"/>
  <rect x="212.0" y="230" width="6" height="20" rx="1" fill="#1B2A4A" opacity="0.7"/>
  <rect x="262.0" y="230" width="6" height="20" rx="1" fill="#1B2A4A" opacity="0.7"/>
  <text x="275.0" y="244" font-size="9" fill="#6B6B6B">2</text>
  <rect x="155.0" y="336" width="50" height="8" rx="2" fill="#C0392B" opacity="0.85"/>
  <rect x="152.0" y="330" width="6" height="20" rx="1" fill="#1B2A4A" opacity="0.7"/>
  <rect x="202.0" y="330" width="6" height="20" rx="1" fill="#1B2A4A" opacity="0.7"/>
  <text x="215.0" y="344" font-size="9" fill="#6B6B6B">3</text>
  <rect x="225.0" y="416" width="50" height="8" rx="2" fill="#C0392B" opacity="0.85"/>
  <rect x="222.0" y="410" width="6" height="20" rx="1" fill="#1B2A4A" opacity="0.7"/>
  <rect x="272.0" y="410" width="6" height="20" rx="1" fill="#1B2A4A" opacity="0.7"/>
  <text x="285.0" y="424" font-size="9" fill="#6B6B6B">4</text>
  <path d="M 160.0,180 L 240.0,210 L 240.0,235 L 180.0,310 L 180.0,335 L 250.0,390 L 250.0,415" fill="none" stroke="#2D5A3D" stroke-width="2" marker-end="url(#ah)"/>
  <line x1="60" y1="480" x2="78" y2="480" stroke="#2D5A3D" stroke-width="2.5" stroke-dasharray="6,3"/>
  <text x="82" y="484" font-size="9" fill="#6B6B6B">Course path</text>
  <rect x="150.5" y="477" width="16" height="6" rx="1" fill="#C0392B" opacity="0.85"/>
  <text x="170.5" y="484" font-size="9" fill="#6B6B6B">Fence</text>
</svg>